<svg width="359" height="37" viewBox="0 0 359 37" fill="none" xmlns="http://www.w3.org/2000/svg">
<rect y="3" width="359" height="30" fill="#333333"/>
<path d="M0.997223 32.5921L358.989 32.5921" stroke="#2F80ED" stroke-width="2"/>
<path d="M197 18.3214C197 27.8538 188.976 35.6429 179 35.6429C169.024 35.6429 161 27.8538 161 18.3214C161 8.78903 169.024 1 179 1C188.976 1 197 8.78903 197 18.3214Z" fill="#2F80ED" stroke="#2F80ED" stroke-width="2"/>
<path d="M180 23.1429L178.406 16.2105M181.389 5.42859L177.026 10.8811C176.885 11.0576 176.842 11.2931 176.91 11.5085L178.406 16.2105M178.406 16.2105L182.077 13.6871M185.977 13.2283L182.765 22.5191L180.249 29.7988C180.033 30.4221 180.746 30.9536 181.282 30.5689L188.5 25.3867" stroke="#F2F2F2" stroke-width="2" stroke-linecap="round" stroke-linejoin="round"/>
<path d="M173.353 29.9709L170.509 23.1276M170.509 23.1276L167.755 16.4995C167.57 16.0542 167.897 15.5639 168.38 15.5639L174.896 15.564C175.455 15.564 175.773 16.2041 175.434 16.6493L170.509 23.1276ZM170.509 23.1276L178.881 25.3867" stroke="#F2F2F2" stroke-width="2" stroke-linecap="round" stroke-linejoin="round"/>
</svg>
