<svg width="175" height="57" viewBox="0 0 175 57" fill="none" xmlns="http://www.w3.org/2000/svg">
<g filter="url(#filter0_i)">
<path d="M23.3 55.4001V3.62336C23.3 3.2302 22.8695 2.98764 22.5317 3.19048L1.24534 15.9731C1.09309 16.0645 1 16.2287 1 16.4059V42.6175C1 42.7947 1.09309 42.9589 1.24534 43.0504L22.5317 55.8329C22.8695 56.0358 23.3 55.7932 23.3 55.4001Z" fill="#333333"/>
</g>
<path d="M23.6 3.50814V55.4919C23.6 55.8866 24.0247 56.1301 24.358 55.9265L45.358 43.0928C45.5082 43.001 45.6 42.8361 45.6 42.6582V16.3418C45.6 16.1639 45.5082 15.999 45.358 15.9072L24.358 3.07352C24.0247 2.86987 23.6 3.1134 23.6 3.50814Z" fill="#2F80ED"/>
<path d="M23.0671 3.14847C23.3943 2.95051 23.8057 2.95051 24.1329 3.14847L45.1103 15.8416C45.4144 16.0257 45.6 16.3532 45.6 16.7063V42.2937C45.6 42.6468 45.4144 42.9743 45.1103 43.1584L24.1329 55.8515C23.8057 56.0495 23.3943 56.0495 23.0671 55.8515L2.08959 43.1583C1.7855 42.9743 1.60001 42.6468 1.60001 42.2937V16.7063C1.60001 16.3532 1.7855 16.0257 2.08959 15.8416L23.0671 3.14847Z" stroke="#333333" stroke-width="2"/>
<g filter="url(#filter1_d)">
<path d="M33.7984 19.7346L29.0988 33.9719L25.408 45.1533C25.0986 46.0904 26.1853 46.8661 26.9754 46.2722L37.4909 38.366" stroke="#F2F2F2" stroke-width="2.94737" stroke-linecap="round" stroke-linejoin="round"/>
</g>
<g filter="url(#filter2_d)">
<path d="M24.0392 35.9383L21.7072 25.3152M21.7072 25.3152L20.3484 18.252C20.2918 17.9578 20.3696 17.6538 20.5604 17.4225L26.8477 9.80377M21.7072 25.3152L28.3682 20.4157" stroke="#F2F2F2" stroke-width="2.94737" stroke-linecap="round" stroke-linejoin="round"/>
</g>
<g filter="url(#filter3_d)">
<path d="M10.6295 36.5863L21.021 40.605M13.1636 46.1877L10.6295 36.5863L13.1636 46.1877ZM10.6295 36.5863L7.98507 26.4787C7.79947 25.7696 8.41212 25.1064 9.13646 25.232L17.4533 26.6743C18.2343 26.8097 18.5609 27.7479 18.0322 28.337L10.6295 36.5863Z" stroke="#F2F2F2" stroke-width="2.94737" stroke-linecap="round" stroke-linejoin="round"/>
</g>
<path d="M53.2715 25H52.1816V17.7754L49.9961 18.5781V17.5938L53.1016 16.4277H53.2715V25ZM56.4531 18.4199C56.4531 17.8027 56.6367 17.3047 57.0039 16.9258C57.3711 16.543 57.8555 16.3516 58.457 16.3516C59.0625 16.3516 59.5488 16.541 59.916 16.9199C60.2832 17.2949 60.4668 17.8066 60.4668 18.4551V18.8887C60.4668 19.5098 60.2832 20.0098 59.916 20.3887C59.5527 20.7676 59.0703 20.957 58.4688 20.957C57.8672 20.957 57.3809 20.7676 57.0098 20.3887C56.6387 20.0098 56.4531 19.498 56.4531 18.8535V18.4199ZM57.4082 18.8887C57.4082 19.2793 57.502 19.5859 57.6895 19.8086C57.8809 20.0312 58.1406 20.1426 58.4688 20.1426C58.793 20.1426 59.0469 20.0312 59.2305 19.8086C59.418 19.582 59.5117 19.2715 59.5117 18.877V18.4199C59.5117 18.0332 59.416 17.7285 59.2246 17.5059C59.0371 17.2832 58.7812 17.1719 58.457 17.1719C58.1406 17.1719 57.8887 17.2793 57.7012 17.4941C57.5137 17.709 57.416 18.0059 57.4082 18.3848V18.8887ZM66.291 21.6602V25H65.166V16.4688H68.3125C69.2461 16.4688 69.9766 16.707 70.5039 17.1836C71.0352 17.6602 71.3008 18.291 71.3008 19.0762C71.3008 19.9043 71.041 20.543 70.5215 20.9922C70.0059 21.4375 69.2656 21.6602 68.3008 21.6602H66.291ZM66.291 20.7402H68.3125C68.9141 20.7402 69.375 20.5996 69.6953 20.3184C70.0156 20.0332 70.1758 19.623 70.1758 19.0879C70.1758 18.5801 70.0156 18.1738 69.6953 17.8691C69.375 17.5645 68.9355 17.4062 68.377 17.3945H66.291V20.7402ZM72.1973 21.7715C72.1973 21.1504 72.3184 20.5918 72.5605 20.0957C72.8066 19.5996 73.1465 19.2168 73.5801 18.9473C74.0176 18.6777 74.5156 18.543 75.0742 18.543C75.9375 18.543 76.6348 18.8418 77.166 19.4395C77.7012 20.0371 77.9688 20.832 77.9688 21.8242V21.9004C77.9688 22.5176 77.8496 23.0723 77.6113 23.5645C77.377 24.0527 77.0391 24.4336 76.5977 24.707C76.1602 24.9805 75.6562 25.1172 75.0859 25.1172C74.2266 25.1172 73.5293 24.8184 72.9941 24.2207C72.4629 23.623 72.1973 22.832 72.1973 21.8477V21.7715ZM73.2871 21.9004C73.2871 22.6035 73.4492 23.168 73.7734 23.5938C74.1016 24.0195 74.5391 24.2324 75.0859 24.2324C75.6367 24.2324 76.0742 24.0176 76.3984 23.5879C76.7227 23.1543 76.8848 22.5488 76.8848 21.7715C76.8848 21.0762 76.7188 20.5137 76.3867 20.084C76.0586 19.6504 75.6211 19.4336 75.0742 19.4336C74.5391 19.4336 74.1074 19.6465 73.7793 20.0723C73.4512 20.498 73.2871 21.1074 73.2871 21.9004ZM82.3926 19.6328C82.2285 19.6055 82.0508 19.5918 81.8594 19.5918C81.1484 19.5918 80.666 19.8945 80.4121 20.5V25H79.3281V18.6602H80.3828L80.4004 19.3926C80.7559 18.8262 81.2598 18.543 81.9121 18.543C82.123 18.543 82.2832 18.5703 82.3926 18.625V19.6328ZM85.1582 17.125V18.6602H86.3418V19.498H85.1582V23.4297C85.1582 23.6836 85.2109 23.875 85.3164 24.0039C85.4219 24.1289 85.6016 24.1914 85.8555 24.1914C85.9805 24.1914 86.1523 24.168 86.3711 24.1211V25C86.0859 25.0781 85.8086 25.1172 85.5391 25.1172C85.0547 25.1172 84.6895 24.9707 84.4434 24.6777C84.1973 24.3848 84.0742 23.9688 84.0742 23.4297V19.498H82.9199V18.6602H84.0742V17.125H85.1582ZM88.1465 25V19.498H87.1445V18.6602H88.1465V18.0098C88.1465 17.3301 88.3281 16.8047 88.6914 16.4336C89.0547 16.0625 89.5684 15.877 90.2324 15.877C90.4824 15.877 90.7305 15.9102 90.9766 15.9766L90.918 16.8555C90.7344 16.8203 90.5391 16.8027 90.332 16.8027C89.9805 16.8027 89.709 16.9062 89.5176 17.1133C89.3262 17.3164 89.2305 17.6094 89.2305 17.9922V18.6602H90.584V19.498H89.2305V25H88.1465ZM91.498 21.7715C91.498 21.1504 91.6191 20.5918 91.8613 20.0957C92.1074 19.5996 92.4473 19.2168 92.8809 18.9473C93.3184 18.6777 93.8164 18.543 94.375 18.543C95.2383 18.543 95.9355 18.8418 96.4668 19.4395C97.002 20.0371 97.2695 20.832 97.2695 21.8242V21.9004C97.2695 22.5176 97.1504 23.0723 96.9121 23.5645C96.6777 24.0527 96.3398 24.4336 95.8984 24.707C95.4609 24.9805 94.957 25.1172 94.3867 25.1172C93.5273 25.1172 92.8301 24.8184 92.2949 24.2207C91.7637 23.623 91.498 22.832 91.498 21.8477V21.7715ZM92.5879 21.9004C92.5879 22.6035 92.75 23.168 93.0742 23.5938C93.4023 24.0195 93.8398 24.2324 94.3867 24.2324C94.9375 24.2324 95.375 24.0176 95.6992 23.5879C96.0234 23.1543 96.1855 22.5488 96.1855 21.7715C96.1855 21.0762 96.0195 20.5137 95.6875 20.084C95.3594 19.6504 94.9219 19.4336 94.375 19.4336C93.8398 19.4336 93.4082 19.6465 93.0801 20.0723C92.752 20.498 92.5879 21.1074 92.5879 21.9004ZM99.8066 25H98.7227V16H99.8066V25ZM102.725 25H101.641V18.6602H102.725V25ZM101.553 16.9785C101.553 16.8027 101.605 16.6543 101.711 16.5332C101.82 16.4121 101.98 16.3516 102.191 16.3516C102.402 16.3516 102.562 16.4121 102.672 16.5332C102.781 16.6543 102.836 16.8027 102.836 16.9785C102.836 17.1543 102.781 17.3008 102.672 17.418C102.562 17.5352 102.402 17.5938 102.191 17.5938C101.98 17.5938 101.82 17.5352 101.711 17.418C101.605 17.3008 101.553 17.1543 101.553 16.9785ZM104.178 21.7715C104.178 21.1504 104.299 20.5918 104.541 20.0957C104.787 19.5996 105.127 19.2168 105.561 18.9473C105.998 18.6777 106.496 18.543 107.055 18.543C107.918 18.543 108.615 18.8418 109.146 19.4395C109.682 20.0371 109.949 20.832 109.949 21.8242V21.9004C109.949 22.5176 109.83 23.0723 109.592 23.5645C109.357 24.0527 109.02 24.4336 108.578 24.707C108.141 24.9805 107.637 25.1172 107.066 25.1172C106.207 25.1172 105.51 24.8184 104.975 24.2207C104.443 23.623 104.178 22.832 104.178 21.8477V21.7715ZM105.268 21.9004C105.268 22.6035 105.43 23.168 105.754 23.5938C106.082 24.0195 106.52 24.2324 107.066 24.2324C107.617 24.2324 108.055 24.0176 108.379 23.5879C108.703 23.1543 108.865 22.5488 108.865 21.7715C108.865 21.0762 108.699 20.5137 108.367 20.084C108.039 19.6504 107.602 19.4336 107.055 19.4336C106.52 19.4336 106.088 19.6465 105.76 20.0723C105.432 20.498 105.268 21.1074 105.268 21.9004ZM114.455 25V16.4688H116.863C117.605 16.4688 118.262 16.6328 118.832 16.9609C119.402 17.2891 119.842 17.7559 120.15 18.3613C120.463 18.9668 120.621 19.6621 120.625 20.4473V20.9922C120.625 21.7969 120.469 22.502 120.156 23.1074C119.848 23.7129 119.404 24.1777 118.826 24.502C118.252 24.8262 117.582 24.9922 116.816 25H114.455ZM115.58 17.3945V24.0801H116.764C117.631 24.0801 118.305 23.8105 118.785 23.2715C119.27 22.7324 119.512 21.9648 119.512 20.9688V20.4707C119.512 19.502 119.283 18.75 118.826 18.2148C118.373 17.6758 117.729 17.4023 116.893 17.3945H115.58ZM124.791 25.1172C123.932 25.1172 123.232 24.8359 122.693 24.2734C122.154 23.707 121.885 22.9512 121.885 22.0059V21.8066C121.885 21.1777 122.004 20.6172 122.242 20.125C122.484 19.6289 122.82 19.2422 123.25 18.9648C123.684 18.6836 124.152 18.543 124.656 18.543C125.48 18.543 126.121 18.8145 126.578 19.3574C127.035 19.9004 127.264 20.6777 127.264 21.6895V22.1406H122.969C122.984 22.7656 123.166 23.2715 123.514 23.6582C123.865 24.041 124.311 24.2324 124.85 24.2324C125.232 24.2324 125.557 24.1543 125.822 23.998C126.088 23.8418 126.32 23.6348 126.52 23.377L127.182 23.8926C126.65 24.709 125.854 25.1172 124.791 25.1172ZM124.656 19.4336C124.219 19.4336 123.852 19.5938 123.555 19.9141C123.258 20.2305 123.074 20.6758 123.004 21.25H126.18V21.168C126.148 20.6172 126 20.1914 125.734 19.8906C125.469 19.5859 125.109 19.4336 124.656 19.4336ZM130.533 23.5293L132.104 18.6602H133.211L130.938 25H130.111L127.814 18.6602H128.922L130.533 23.5293ZM136.803 25.1172C135.943 25.1172 135.244 24.8359 134.705 24.2734C134.166 23.707 133.896 22.9512 133.896 22.0059V21.8066C133.896 21.1777 134.016 20.6172 134.254 20.125C134.496 19.6289 134.832 19.2422 135.262 18.9648C135.695 18.6836 136.164 18.543 136.668 18.543C137.492 18.543 138.133 18.8145 138.59 19.3574C139.047 19.9004 139.275 20.6777 139.275 21.6895V22.1406H134.98C134.996 22.7656 135.178 23.2715 135.525 23.6582C135.877 24.041 136.322 24.2324 136.861 24.2324C137.244 24.2324 137.568 24.1543 137.834 23.998C138.1 23.8418 138.332 23.6348 138.531 23.377L139.193 23.8926C138.662 24.709 137.865 25.1172 136.803 25.1172ZM136.668 19.4336C136.23 19.4336 135.863 19.5938 135.566 19.9141C135.27 20.2305 135.086 20.6758 135.016 21.25H138.191V21.168C138.16 20.6172 138.012 20.1914 137.746 19.8906C137.48 19.5859 137.121 19.4336 136.668 19.4336ZM141.713 25H140.629V16H141.713V25ZM143.166 21.7715C143.166 21.1504 143.287 20.5918 143.529 20.0957C143.775 19.5996 144.115 19.2168 144.549 18.9473C144.986 18.6777 145.484 18.543 146.043 18.543C146.906 18.543 147.604 18.8418 148.135 19.4395C148.67 20.0371 148.938 20.832 148.938 21.8242V21.9004C148.938 22.5176 148.818 23.0723 148.58 23.5645C148.346 24.0527 148.008 24.4336 147.566 24.707C147.129 24.9805 146.625 25.1172 146.055 25.1172C145.195 25.1172 144.498 24.8184 143.963 24.2207C143.432 23.623 143.166 22.832 143.166 21.8477V21.7715ZM144.256 21.9004C144.256 22.6035 144.418 23.168 144.742 23.5938C145.07 24.0195 145.508 24.2324 146.055 24.2324C146.605 24.2324 147.043 24.0176 147.367 23.5879C147.691 23.1543 147.854 22.5488 147.854 21.7715C147.854 21.0762 147.688 20.5137 147.355 20.084C147.027 19.6504 146.59 19.4336 146.043 19.4336C145.508 19.4336 145.076 19.6465 144.748 20.0723C144.42 20.498 144.256 21.1074 144.256 21.9004ZM155.652 21.9004C155.652 22.8652 155.432 23.6426 154.99 24.2324C154.549 24.8223 153.951 25.1172 153.197 25.1172C152.428 25.1172 151.822 24.873 151.381 24.3848V27.4375H150.297V18.6602H151.287L151.34 19.3633C151.781 18.8164 152.395 18.543 153.18 18.543C153.941 18.543 154.543 18.8301 154.984 19.4043C155.43 19.9785 155.652 20.7773 155.652 21.8008V21.9004ZM154.568 21.7773C154.568 21.0625 154.416 20.498 154.111 20.084C153.807 19.6699 153.389 19.4629 152.857 19.4629C152.201 19.4629 151.709 19.7539 151.381 20.3359V23.3652C151.705 23.9434 152.201 24.2324 152.869 24.2324C153.389 24.2324 153.801 24.0273 154.105 23.6172C154.414 23.2031 154.568 22.5898 154.568 21.7773ZM159.666 25.1172C158.807 25.1172 158.107 24.8359 157.568 24.2734C157.029 23.707 156.76 22.9512 156.76 22.0059V21.8066C156.76 21.1777 156.879 20.6172 157.117 20.125C157.359 19.6289 157.695 19.2422 158.125 18.9648C158.559 18.6836 159.027 18.543 159.531 18.543C160.355 18.543 160.996 18.8145 161.453 19.3574C161.91 19.9004 162.139 20.6777 162.139 21.6895V22.1406H157.844C157.859 22.7656 158.041 23.2715 158.389 23.6582C158.74 24.041 159.186 24.2324 159.725 24.2324C160.107 24.2324 160.432 24.1543 160.697 23.998C160.963 23.8418 161.195 23.6348 161.395 23.377L162.057 23.8926C161.525 24.709 160.729 25.1172 159.666 25.1172ZM159.531 19.4336C159.094 19.4336 158.727 19.5938 158.43 19.9141C158.133 20.2305 157.949 20.6758 157.879 21.25H161.055V21.168C161.023 20.6172 160.875 20.1914 160.609 19.8906C160.344 19.5859 159.984 19.4336 159.531 19.4336ZM163.135 21.7773C163.135 20.8047 163.365 20.0234 163.826 19.4336C164.287 18.8398 164.891 18.543 165.637 18.543C166.379 18.543 166.967 18.7969 167.4 19.3047V16H168.484V25H167.488L167.436 24.3203C167.002 24.8516 166.398 25.1172 165.625 25.1172C164.891 25.1172 164.291 24.8164 163.826 24.2148C163.365 23.6133 163.135 22.8281 163.135 21.8594V21.7773ZM164.219 21.9004C164.219 22.6191 164.367 23.1816 164.664 23.5879C164.961 23.9941 165.371 24.1973 165.895 24.1973C166.582 24.1973 167.084 23.8887 167.4 23.2715V20.3594C167.076 19.7617 166.578 19.4629 165.906 19.4629C165.375 19.4629 164.961 19.668 164.664 20.0781C164.367 20.4883 164.219 21.0957 164.219 21.9004Z" fill="black"/>
<path d="M54.0859 35.9844H52.6016V40H49.8594V28.625H54.3359C55.6849 28.625 56.7396 28.9245 57.5 29.5234C58.2604 30.1224 58.6406 30.9688 58.6406 32.0625C58.6406 32.8542 58.4792 33.5104 58.1562 34.0312C57.8385 34.5521 57.3385 34.974 56.6562 35.2969L59.0312 39.8828V40H56.0938L54.0859 35.9844ZM52.6016 33.8672H54.3359C54.8568 33.8672 55.2474 33.7318 55.5078 33.4609C55.7734 33.1849 55.9062 32.8021 55.9062 32.3125C55.9062 31.8229 55.7734 31.4401 55.5078 31.1641C55.2422 30.8828 54.8516 30.7422 54.3359 30.7422H52.6016V33.8672ZM64.9375 40C64.8438 39.8281 64.7604 39.5755 64.6875 39.2422C64.2031 39.8516 63.526 40.1562 62.6562 40.1562C61.8594 40.1562 61.1823 39.9167 60.625 39.4375C60.0677 38.9531 59.7891 38.3464 59.7891 37.6172C59.7891 36.7005 60.1276 36.0078 60.8047 35.5391C61.4818 35.0703 62.4661 34.8359 63.7578 34.8359H64.5703V34.3906C64.5703 33.6146 64.2344 33.2266 63.5625 33.2266C62.9375 33.2266 62.625 33.5339 62.625 34.1484H59.9922C59.9922 33.3307 60.3385 32.6667 61.0312 32.1562C61.7292 31.6458 62.6172 31.3906 63.6953 31.3906C64.7734 31.3906 65.625 31.6536 66.25 32.1797C66.875 32.7057 67.1953 33.4271 67.2109 34.3438V38.0859C67.2214 38.862 67.3411 39.4557 67.5703 39.8672V40H64.9375ZM63.2891 38.2812C63.6172 38.2812 63.888 38.2109 64.1016 38.0703C64.3203 37.9297 64.4766 37.7708 64.5703 37.5938V36.2422H63.8047C62.888 36.2422 62.4297 36.6536 62.4297 37.4766C62.4297 37.7161 62.5104 37.9115 62.6719 38.0625C62.8333 38.2083 63.0391 38.2812 63.2891 38.2812ZM69.2578 40V33.375H68.0312V31.5469H69.2578V30.875C69.2578 29.9115 69.5417 29.1641 70.1094 28.6328C70.6771 28.1016 71.474 27.8359 72.5 27.8359C72.875 27.8359 73.2865 27.8906 73.7344 28L73.7422 29.9375C73.5807 29.8906 73.3646 29.8672 73.0938 29.8672C72.2969 29.8672 71.8984 30.2109 71.8984 30.8984V31.5469H73.5469V33.375H71.8984V40H69.2578ZM79.2344 40C79.1406 39.8281 79.0573 39.5755 78.9844 39.2422C78.5 39.8516 77.8229 40.1562 76.9531 40.1562C76.1562 40.1562 75.4792 39.9167 74.9219 39.4375C74.3646 38.9531 74.0859 38.3464 74.0859 37.6172C74.0859 36.7005 74.4245 36.0078 75.1016 35.5391C75.7786 35.0703 76.763 34.8359 78.0547 34.8359H78.8672V34.3906C78.8672 33.6146 78.5312 33.2266 77.8594 33.2266C77.2344 33.2266 76.9219 33.5339 76.9219 34.1484H74.2891C74.2891 33.3307 74.6354 32.6667 75.3281 32.1562C76.026 31.6458 76.9141 31.3906 77.9922 31.3906C79.0703 31.3906 79.9219 31.6536 80.5469 32.1797C81.1719 32.7057 81.4922 33.4271 81.5078 34.3438V38.0859C81.5182 38.862 81.638 39.4557 81.8672 39.8672V40H79.2344ZM77.5859 38.2812C77.9141 38.2812 78.1849 38.2109 78.3984 38.0703C78.6172 37.9297 78.7734 37.7708 78.8672 37.5938V36.2422H78.1016C77.1849 36.2422 76.7266 36.6536 76.7266 37.4766C76.7266 37.7161 76.8073 37.9115 76.9688 38.0625C77.1302 38.2083 77.3359 38.2812 77.5859 38.2812ZM87.0625 40.1562C85.7656 40.1562 84.7161 39.7708 83.9141 39C83.112 38.224 82.7109 37.2161 82.7109 35.9766V35.7578C82.7109 34.8932 82.8698 34.1302 83.1875 33.4688C83.5104 32.8073 83.9792 32.2969 84.5938 31.9375C85.2083 31.5729 85.9375 31.3906 86.7812 31.3906C87.9688 31.3906 88.9062 31.7604 89.5938 32.5C90.2812 33.2344 90.625 34.2604 90.625 35.5781V36.6016H85.3906C85.4844 37.0755 85.6901 37.4479 86.0078 37.7188C86.3255 37.9896 86.737 38.125 87.2422 38.125C88.0755 38.125 88.7266 37.8333 89.1953 37.25L90.3984 38.6719C90.0703 39.125 89.6042 39.487 89 39.7578C88.401 40.0234 87.7552 40.1562 87.0625 40.1562ZM86.7656 33.4219C85.9948 33.4219 85.5365 33.9323 85.3906 34.9531H88.0469V34.75C88.0573 34.3281 87.9505 34.0026 87.7266 33.7734C87.5026 33.5391 87.1823 33.4219 86.7656 33.4219ZM94.4688 40H91.8281V28H94.4688V40ZM107.367 35.4688H102.945V40H100.203V28.625H107.812V30.7422H102.945V33.3594H107.367V35.4688ZM113.328 40C113.234 39.8281 113.151 39.5755 113.078 39.2422C112.594 39.8516 111.917 40.1562 111.047 40.1562C110.25 40.1562 109.573 39.9167 109.016 39.4375C108.458 38.9531 108.18 38.3464 108.18 37.6172C108.18 36.7005 108.518 36.0078 109.195 35.5391C109.872 35.0703 110.857 34.8359 112.148 34.8359H112.961V34.3906C112.961 33.6146 112.625 33.2266 111.953 33.2266C111.328 33.2266 111.016 33.5339 111.016 34.1484H108.383C108.383 33.3307 108.729 32.6667 109.422 32.1562C110.12 31.6458 111.008 31.3906 112.086 31.3906C113.164 31.3906 114.016 31.6536 114.641 32.1797C115.266 32.7057 115.586 33.4271 115.602 34.3438V38.0859C115.612 38.862 115.732 39.4557 115.961 39.8672V40H113.328ZM111.68 38.2812C112.008 38.2812 112.279 38.2109 112.492 38.0703C112.711 37.9297 112.867 37.7708 112.961 37.5938V36.2422H112.195C111.279 36.2422 110.82 36.6536 110.82 37.4766C110.82 37.7161 110.901 37.9115 111.062 38.0625C111.224 38.2083 111.43 38.2812 111.68 38.2812ZM120.641 38.125C121.01 38.125 121.297 38.026 121.5 37.8281C121.703 37.625 121.802 37.3438 121.797 36.9844H124.266C124.266 37.9115 123.932 38.6719 123.266 39.2656C122.604 39.8594 121.75 40.1562 120.703 40.1562C119.474 40.1562 118.505 39.7708 117.797 39C117.089 38.2292 116.734 37.1615 116.734 35.7969V35.6875C116.734 34.8333 116.891 34.0807 117.203 33.4297C117.521 32.7734 117.977 32.2708 118.57 31.9219C119.164 31.5677 119.867 31.3906 120.68 31.3906C121.779 31.3906 122.651 31.6953 123.297 32.3047C123.943 32.9141 124.266 33.7396 124.266 34.7812H121.797C121.797 34.3438 121.69 34.0078 121.477 33.7734C121.263 33.5391 120.977 33.4219 120.617 33.4219C119.935 33.4219 119.536 33.8568 119.422 34.7266C119.385 35.0026 119.367 35.3828 119.367 35.8672C119.367 36.7161 119.469 37.3047 119.672 37.6328C119.875 37.9609 120.198 38.125 120.641 38.125ZM127.953 32.4531C128.516 31.7448 129.234 31.3906 130.109 31.3906C131.042 31.3906 131.745 31.6667 132.219 32.2188C132.693 32.7708 132.935 33.5859 132.945 34.6641V40H130.305V34.7266C130.305 34.2786 130.214 33.9505 130.031 33.7422C129.849 33.5286 129.539 33.4219 129.102 33.4219C128.56 33.4219 128.177 33.5938 127.953 33.9375V40H125.32V28H127.953V32.4531ZM137.188 40H134.547V31.5469H137.188V40ZM134.391 29.3672C134.391 28.9922 134.526 28.6849 134.797 28.4453C135.068 28.2057 135.419 28.0859 135.852 28.0859C136.284 28.0859 136.635 28.2057 136.906 28.4453C137.177 28.6849 137.312 28.9922 137.312 29.3672C137.312 29.7422 137.177 30.0495 136.906 30.2891C136.635 30.5286 136.284 30.6484 135.852 30.6484C135.419 30.6484 135.068 30.5286 134.797 30.2891C134.526 30.0495 134.391 29.7422 134.391 29.3672ZM141.234 31.5469L141.32 32.5391C141.904 31.7734 142.708 31.3906 143.734 31.3906C144.615 31.3906 145.271 31.6536 145.703 32.1797C146.141 32.7057 146.367 33.4974 146.383 34.5547V40H143.742V34.6641C143.742 34.237 143.656 33.9245 143.484 33.7266C143.312 33.5234 143 33.4219 142.547 33.4219C142.031 33.4219 141.648 33.625 141.398 34.0312V40H138.766V31.5469H141.234ZM151.938 40.1562C150.641 40.1562 149.591 39.7708 148.789 39C147.987 38.224 147.586 37.2161 147.586 35.9766V35.7578C147.586 34.8932 147.745 34.1302 148.062 33.4688C148.385 32.8073 148.854 32.2969 149.469 31.9375C150.083 31.5729 150.812 31.3906 151.656 31.3906C152.844 31.3906 153.781 31.7604 154.469 32.5C155.156 33.2344 155.5 34.2604 155.5 35.5781V36.6016H150.266C150.359 37.0755 150.565 37.4479 150.883 37.7188C151.201 37.9896 151.612 38.125 152.117 38.125C152.951 38.125 153.602 37.8333 154.07 37.25L155.273 38.6719C154.945 39.125 154.479 39.487 153.875 39.7578C153.276 40.0234 152.63 40.1562 151.938 40.1562ZM151.641 33.4219C150.87 33.4219 150.411 33.9323 150.266 34.9531H152.922V34.75C152.932 34.3281 152.826 34.0026 152.602 33.7734C152.378 33.5391 152.057 33.4219 151.641 33.4219ZM159.344 40H156.703V28H159.344V40ZM163.75 40H161.109V28H163.75V40ZM168.156 40H165.516V31.5469H168.156V40ZM165.359 29.3672C165.359 28.9922 165.495 28.6849 165.766 28.4453C166.036 28.2057 166.388 28.0859 166.82 28.0859C167.253 28.0859 167.604 28.2057 167.875 28.4453C168.146 28.6849 168.281 28.9922 168.281 29.3672C168.281 29.7422 168.146 30.0495 167.875 30.2891C167.604 30.5286 167.253 30.6484 166.82 30.6484C166.388 30.6484 166.036 30.5286 165.766 30.2891C165.495 30.0495 165.359 29.7422 165.359 29.3672Z" fill="#2F80ED"/>
<defs>
<filter id="filter0_i" x="1" y="3.11725" width="22.3" height="56.7889" filterUnits="userSpaceOnUse" color-interpolation-filters="sRGB">
<feFlood flood-opacity="0" result="BackgroundImageFix"/>
<feBlend mode="normal" in="SourceGraphic" in2="BackgroundImageFix" result="shape"/>
<feColorMatrix in="SourceAlpha" type="matrix" values="0 0 0 0 0 0 0 0 0 0 0 0 0 0 0 0 0 0 127 0" result="hardAlpha"/>
<feOffset dy="4"/>
<feGaussianBlur stdDeviation="2"/>
<feComposite in2="hardAlpha" operator="arithmetic" k2="-1" k3="1"/>
<feColorMatrix type="matrix" values="0 0 0 0 0 0 0 0 0 0 0 0 0 0 0 0 0 0 0.25 0"/>
<feBlend mode="normal" in2="shape" result="effect1_innerShadow"/>
</filter>
<filter id="filter1_d" x="19.8744" y="18.2606" width="23.0903" height="37.6979" filterUnits="userSpaceOnUse" color-interpolation-filters="sRGB">
<feFlood flood-opacity="0" result="BackgroundImageFix"/>
<feColorMatrix in="SourceAlpha" type="matrix" values="0 0 0 0 0 0 0 0 0 0 0 0 0 0 0 0 0 0 127 0"/>
<feOffset dy="4"/>
<feGaussianBlur stdDeviation="2"/>
<feColorMatrix type="matrix" values="0 0 0 0 0 0 0 0 0 0 0 0 0 0 0 0 0 0 0.25 0"/>
<feBlend mode="normal" in2="BackgroundImageFix" result="effect1_dropShadow"/>
<feBlend mode="normal" in="SourceGraphic" in2="effect1_dropShadow" result="shape"/>
</filter>
<filter id="filter2_d" x="14.8566" y="8.33005" width="18.9853" height="37.0823" filterUnits="userSpaceOnUse" color-interpolation-filters="sRGB">
<feFlood flood-opacity="0" result="BackgroundImageFix"/>
<feColorMatrix in="SourceAlpha" type="matrix" values="0 0 0 0 0 0 0 0 0 0 0 0 0 0 0 0 0 0 127 0"/>
<feOffset dy="4"/>
<feGaussianBlur stdDeviation="2"/>
<feColorMatrix type="matrix" values="0 0 0 0 0 0 0 0 0 0 0 0 0 0 0 0 0 0 0.25 0"/>
<feBlend mode="normal" in2="BackgroundImageFix" result="effect1_dropShadow"/>
<feBlend mode="normal" in="SourceGraphic" in2="effect1_dropShadow" result="shape"/>
</filter>
<filter id="filter3_d" x="2.47635" y="23.7424" width="24.0188" height="31.9193" filterUnits="userSpaceOnUse" color-interpolation-filters="sRGB">
<feFlood flood-opacity="0" result="BackgroundImageFix"/>
<feColorMatrix in="SourceAlpha" type="matrix" values="0 0 0 0 0 0 0 0 0 0 0 0 0 0 0 0 0 0 127 0"/>
<feOffset dy="4"/>
<feGaussianBlur stdDeviation="2"/>
<feColorMatrix type="matrix" values="0 0 0 0 0 0 0 0 0 0 0 0 0 0 0 0 0 0 0.25 0"/>
<feBlend mode="normal" in2="BackgroundImageFix" result="effect1_dropShadow"/>
<feBlend mode="normal" in="SourceGraphic" in2="effect1_dropShadow" result="shape"/>
</filter>
</defs>
</svg>
