<svg width="360" height="60" viewBox="0 0 360 60" fill="none" xmlns="http://www.w3.org/2000/svg">
<rect x="0.999969" y="15.0001" width="359" height="30" fill="#333333"/>
<path d="M0.99408 44.5933L359.989 44.5922" stroke="#2F80ED" stroke-width="2"/>
<circle cx="180" cy="30" r="28.5263" fill="#2F80ED" stroke="#2F80ED" stroke-width="2.94737"/>
<path d="M181.579 37.8948L179.063 26.5436M183.771 8.88898L176.842 17.8716C176.644 18.1276 176.583 18.4635 176.678 18.7725L179.063 26.5436M179.063 26.5436L184.858 22.4117M191.016 21.6604L185.945 36.8735L181.876 49.079C181.568 50.004 182.634 50.7756 183.416 50.1933L195 41.5689" stroke="#F2F2F2" stroke-width="2.94737" stroke-linecap="round" stroke-linejoin="round"/>
<path d="M171.083 49.0752L166.593 37.8698M166.593 37.8698L162.177 26.8475C161.914 26.1919 162.384 25.4848 163.082 25.4848L173.682 25.4848C174.501 25.4848 174.981 26.4277 174.498 27.0867L166.593 37.8698ZM166.593 37.8698L179.812 41.5689" stroke="#F2F2F2" stroke-width="2.94737" stroke-linecap="round" stroke-linejoin="round"/>
</svg>
