<svg width="38" height="37" viewBox="0 0 38 37" fill="none" xmlns="http://www.w3.org/2000/svg">
<path d="M20 23.1429L18.4063 16.2105M21.3885 5.42859L17.0265 10.8811C16.8853 11.0576 16.8416 11.2931 16.9102 11.5085L18.4063 16.2105M18.4063 16.2105L22.0767 13.6871M25.9766 13.2283L22.7649 22.5191L20.2485 29.7988C20.033 30.4221 20.7462 30.9536 21.2819 30.5689L28.5 25.3867" stroke="#2F80ED" stroke-width="2" stroke-linecap="round" stroke-linejoin="round"/>
<path d="M13.3525 29.9709L10.5091 23.1276M10.5091 23.1276L7.75514 16.4995C7.57013 16.0542 7.89734 15.5639 8.37952 15.5639L14.8959 15.564C15.4551 15.564 15.7726 16.2041 15.4341 16.6493L10.5091 23.1276ZM10.5091 23.1276L18.881 25.3867" stroke="#2F80ED" stroke-width="2" stroke-linecap="round" stroke-linejoin="round"/>
<path d="M37 18.3214C37 27.8538 28.9757 35.6429 19 35.6429C9.02428 35.6429 1 27.8538 1 18.3214C1 8.78903 9.02428 1 19 1C28.9757 1 37 8.78903 37 18.3214Z" stroke="#2F80ED" stroke-width="2"/>
</svg>
