<svg width="38" height="37" viewBox="0 0 38 37" fill="none" xmlns="http://www.w3.org/2000/svg">
<path d="M37 18.6785C37 28.2109 28.9757 36 19 36C9.02428 36 1 28.2109 1 18.6785C1 9.14615 9.02428 1.35712 19 1.35712C28.9757 1.35712 37 9.14615 37 18.6785Z" fill="#2F80ED" stroke="#2F80ED" stroke-width="2"/>
<path d="M20 23.5L18.4063 16.5677M21.3885 5.78571L17.0265 11.2382C16.8853 11.4148 16.8416 11.6502 16.9102 11.8656L18.4063 16.5677M18.4063 16.5677L22.0767 14.0442M25.9766 13.5854L22.7649 22.8763L20.2485 30.1559C20.033 30.7792 20.7462 31.3107 21.2819 30.9261L28.5 25.7438" stroke="#F2F2F2" stroke-width="2" stroke-linecap="round" stroke-linejoin="round"/>
<path d="M13.3525 30.328L10.5091 23.4847M10.5091 23.4847L7.75514 16.8566C7.57013 16.4113 7.89734 15.9211 8.37952 15.9211L14.8959 15.9211C15.4551 15.9211 15.7726 16.5612 15.4341 17.0064L10.5091 23.4847ZM10.5091 23.4847L18.881 25.7438" stroke="#F2F2F2" stroke-width="2" stroke-linecap="round" stroke-linejoin="round"/>
</svg>
