<svg width="40" height="40" viewBox="0 0 40 40" fill="none" xmlns="http://www.w3.org/2000/svg">
<path fill-rule="evenodd" clip-rule="evenodd" d="M19.9983 0C8.955 0 0 9.18148 0 20.5075C0 29.566 5.73 37.2523 13.6783 39.9641C14.6783 40.1521 15.0433 39.5199 15.0433 38.9765C15.0433 38.4894 15.0267 37.1993 15.0167 35.4888C9.45333 36.7276 8.28 32.7393 8.28 32.7393C7.37 30.3708 6.06 29.7403 6.06 29.7403C4.24333 28.4672 6.19667 28.4946 6.19667 28.4946C8.20333 28.6398 9.26 30.6084 9.26 30.6084C11.0433 33.7423 13.9417 32.8367 15.08 32.3121C15.2617 30.9877 15.7783 30.0838 16.35 29.5711C11.9083 29.0533 7.24 27.295 7.24 19.4361C7.24 17.1976 8.02 15.3674 9.29833 13.9337C9.09333 13.4142 8.40667 11.3295 9.495 8.5065C9.495 8.5065 11.175 7.95455 14.995 10.6083C16.59 10.1538 18.3017 9.92653 20.0017 9.91798C21.7 9.92653 23.4117 10.1538 25.0083 10.6083C28.8267 7.95455 30.5033 8.5065 30.5033 8.5065C31.595 11.3295 30.9083 13.4142 30.7017 13.9337C31.9833 15.3674 32.7567 17.1976 32.7567 19.4361C32.7567 27.3138 28.08 29.0465 23.625 29.554C24.3433 30.1863 24.9833 31.4389 24.9833 33.351C24.9833 36.092 24.9583 38.3032 24.9583 38.9765C24.9583 39.525 25.3183 40.1624 26.3333 39.9624C34.275 37.2437 40 29.5643 40 20.5075C40 9.18148 31.045 0 19.9983 0Z" fill="#2F80ED"/>
</svg>
