<svg width="40" height="40" viewBox="0 0 40 40" fill="none" xmlns="http://www.w3.org/2000/svg">
<path d="M36.3333 0H3.66667C1.66667 0 0 1.66667 0 3.66667V36.3333C0 38.3333 1.66667 40 3.66667 40H36.3333C38.3333 40 40 38.3333 40 36.3333V3.66667C40 1.66667 38.3333 0 36.3333 0ZM11.6667 33.3333H5V15H11.6667V33.3333ZM8.33333 12.8333C6.33333 12.8333 5 11.5 5 9.83333C5 8 6.33333 6.66667 8.33333 6.66667C10.3333 6.66667 11.6667 8 11.6667 9.66667C11.6667 11.5 10.3333 12.8333 8.33333 12.8333ZM35 33.3333H28.3333V23.3333C28.3333 20.6667 26.5 20 26 20C25.5 20 23.3333 20.3333 23.3333 23.3333C23.3333 23.6667 23.3333 33.3333 23.3333 33.3333H16.6667V15H23.3333V17.6667C24.3333 16.1667 26 15 29.1667 15C32.3333 15 35 17.5 35 23.3333V33.3333Z" fill="#2F80ED"/>
</svg>
