<svg width="40" height="29" viewBox="0 0 40 29" fill="none" xmlns="http://www.w3.org/2000/svg">
<path d="M39.9705 2.86743C39.9705 2.82173 40.0019 2.77724 39.9999 2.73206L27.7932 14.4938L39.9853 25.8799C39.9924 25.7985 39.9705 25.7165 39.9705 25.6334V2.86743Z" fill="#2F80ED"/>
<path d="M25.9299 16.3038L20.9468 21.0982C20.6946 21.3408 20.3689 21.4625 20.0431 21.4625C19.724 21.4625 19.405 21.346 19.1545 21.1126L14.185 16.4818L1.91333 28.3103C2.21172 28.4175 2.532 28.5008 2.86741 28.5008H37.219C37.717 28.5008 38.1842 28.349 38.5903 28.1228L25.9299 16.3038Z" fill="#2F80ED"/>
<path d="M20.0289 18.3642L38.6579 0.418995C38.2362 0.168224 37.7452 0 37.219 0H2.86746C2.18222 0 1.55434 0.266065 1.06531 0.671852L20.0289 18.3642Z" fill="#2F80ED"/>
<path d="M0 3.30444V25.633C0 25.8894 0.0589131 26.1365 0.122866 26.3727L12.2423 14.702L0 3.30444Z" fill="#2F80ED"/>
</svg>
